<svg xmlns="http://www.w3.org/2000/svg" viewBox="0 0 1440 900" fill="none"><g stroke="#dd6457" stroke-width="1.6" opacity=".13"><ellipse cx="760" cy="370" rx="760" ry="200" transform="rotate(-13 760 370)"/><path d="M-100 700C240 480 910 1010 1510 630"/><circle cx="180" cy="296" r="10"/><circle cx="1060" cy="218" r="7"/></g><g opacity=".10"><g transform="translate(130 140) rotate(-8 27 27)"><svg xmlns="http://www.w3.org/2000/svg" width="54" height="54" viewBox="0 0 24 24" fill="none" stroke="#a13d35" stroke-width="1.25" stroke-linecap="round" stroke-linejoin="round" class="lucide lucide-users-round"><path d="M18 21a8 8 0 0 0-16 0"></path><circle cx="10" cy="8" r="5"></circle><path d="M22 20c0-3.37-2-6.5-4-8a5 5 0 0 0-.45-8.3"></path></svg></g><g transform="translate(1110 90) rotate(8 32.5 32.5)"><svg xmlns="http://www.w3.org/2000/svg" width="65" height="65" viewBox="0 0 24 24" fill="none" stroke="#a13d35" stroke-width="1.25" stroke-linecap="round" stroke-linejoin="round" class="lucide lucide-send"><path d="M14.536 21.686a.5.5 0 0 0 .937-.024l6.5-19a.496.496 0 0 0-.635-.635l-19 6.5a.5.5 0 0 0-.024.937l7.93 3.18a2 2 0 0 1 1.112 1.11z"></path><path d="m21.854 2.147-10.94 10.939"></path></svg></g><g transform="translate(1290 420) rotate(-8 24 24)"><svg xmlns="http://www.w3.org/2000/svg" width="48" height="48" viewBox="0 0 24 24" fill="none" stroke="#a13d35" stroke-width="1.25" stroke-linecap="round" stroke-linejoin="round" class="lucide lucide-user-round"><circle cx="12" cy="8" r="5"></circle><path d="M20 21a8 8 0 0 0-16 0"></path></svg></g><g transform="translate(70 590) rotate(8 28 28)"><svg xmlns="http://www.w3.org/2000/svg" width="56" height="56" viewBox="0 0 24 24" fill="none" stroke="#a13d35" stroke-width="1.25" stroke-linecap="round" stroke-linejoin="round" class="lucide lucide-users-round"><path d="M18 21a8 8 0 0 0-16 0"></path><circle cx="10" cy="8" r="5"></circle><path d="M22 20c0-3.37-2-6.5-4-8a5 5 0 0 0-.45-8.3"></path></svg></g><g transform="translate(920 700) rotate(-8 32 32)"><svg xmlns="http://www.w3.org/2000/svg" width="64" height="64" viewBox="0 0 24 24" fill="none" stroke="#a13d35" stroke-width="1.25" stroke-linecap="round" stroke-linejoin="round" class="lucide lucide-send"><path d="M14.536 21.686a.5.5 0 0 0 .937-.024l6.5-19a.496.496 0 0 0-.635-.635l-19 6.5a.5.5 0 0 0-.024.937l7.93 3.18a2 2 0 0 1 1.112 1.11z"></path><path d="m21.854 2.147-10.94 10.939"></path></svg></g><g transform="translate(510 430) rotate(8 21 21)"><svg xmlns="http://www.w3.org/2000/svg" width="42" height="42" viewBox="0 0 24 24" fill="none" stroke="#a13d35" stroke-width="1.25" stroke-linecap="round" stroke-linejoin="round" class="lucide lucide-user-round"><circle cx="12" cy="8" r="5"></circle><path d="M20 21a8 8 0 0 0-16 0"></path></svg></g></g></svg>
